<svg width="109" height="20" viewBox="0 0 109 20" fill="none" xmlns="http://www.w3.org/2000/svg">
<path fill-rule="evenodd" clip-rule="evenodd" d="M0 2.85712L5.2391 2.85712C9.3783 2.85712 10.8793 3.28809 12.3925 4.09738C13.9057 4.90666 15.0933 6.09425 15.9026 7.60748C16.7119 9.1207 17.1429 10.6217 17.1429 14.7609V20C7.67512 20 0 12.3249 0 2.85712Z" fill="#5552FF"/>
<path fill-rule="evenodd" clip-rule="evenodd" d="M16.7857 5.00002C17.7719 5.00002 18.5714 4.20053 18.5714 3.2143C18.5714 2.22808 17.7719 1.42859 16.7857 1.42859C15.7995 1.42859 15 2.22808 15 3.2143C15 4.20053 15.7995 5.00002 16.7857 5.00002Z" fill="#FFBF00"/>
<path fill-rule="evenodd" clip-rule="evenodd" d="M0 2.85712L17.1429 20H0V2.85712Z" fill="#5FC279"/>
<path fill-rule="evenodd" clip-rule="evenodd" d="M84.2449 4.47077C84.2449 3.52698 83.566 2.85712 82.6168 2.85712C81.6696 2.85712 81.0005 3.52499 81.0005 4.47077C81.0005 5.41655 81.6696 6.08442 82.6168 6.08442C83.566 6.08442 84.2449 5.41456 84.2449 4.47077ZM41.3226 4.46094V8.09313H44.6897V10.4242H41.3462V15.9098C41.3462 16.9858 41.9332 17.5392 43.0262 17.5392C43.5611 17.5392 44.2883 17.4331 44.8195 17.2752L45.0118 17.218L45.3705 19.5591L45.2407 19.6104C44.65 19.8438 43.6241 20 42.6954 20C40.2009 20 38.6572 18.568 38.6572 16.1928V10.4242H36.6369V8.09313H38.6926V4.46094H41.3226ZM28.7267 7.85726C30.3909 7.85726 31.6681 8.37282 32.5924 9.34272V8.09312H35.2814V19.7641H32.5924V18.5145C31.6681 19.4844 30.3909 20 28.7267 20C25.3677 20 22.8572 17.407 22.8572 13.8696C22.8572 10.3545 25.3446 7.85726 28.7267 7.85726ZM58.0559 13.9286C58.0559 10.4958 55.3794 7.85726 51.8556 7.85726C48.3319 7.85726 45.6553 10.4958 45.6553 13.9286C45.6553 17.3614 48.3319 20 51.8556 20C55.3794 20 58.0559 17.3614 58.0559 13.9286ZM101.823 7.85726C105.557 7.85726 108.03 10.9351 107.403 14.6939L107.357 14.9526H98.6093C99.0641 16.5857 100.406 17.4802 102.438 17.4802C103.677 17.4802 104.767 17.1806 106.332 16.4358L106.542 16.3362L106.954 18.8084L106.848 18.8687C105.511 19.6261 104.052 20 102.438 20C98.5274 20 95.812 17.5187 95.812 13.9286C95.812 10.4412 98.3536 7.85726 101.823 7.85726ZM94.6928 10.2747V8.09316H85.9548V10.4242H91.4983L85.8366 17.5826V19.7641H95.0591V17.4331H89.0311L94.6928 10.2747ZM73.9528 7.85726C76.9724 7.85726 78.7826 9.76259 78.7826 12.7139V19.7641H76.0817V13.2092C76.0817 11.4375 75.1612 10.4242 73.5865 10.4242C71.9398 10.4242 70.7428 11.466 70.6896 13.0677V19.7641H67.9888V13.2092C67.9888 11.4375 67.0682 10.4242 65.4935 10.4242C63.8033 10.4242 62.5966 11.52 62.5966 13.2092V19.7641H59.8958V8.09312H62.5966V9.17629C63.2828 8.41098 64.4105 7.85726 65.8598 7.85726C67.6958 7.85726 69.1011 8.55548 69.9087 9.8152L69.9767 9.72293C70.8306 8.59536 72.272 7.85726 73.9528 7.85726ZM83.9613 19.7641V8.09316H81.2723V19.7641H83.9613ZM29.0102 10.3063C26.9768 10.3063 25.5462 11.8203 25.5462 13.8697C25.5462 15.9458 26.9992 17.551 29.0102 17.551C31.0426 17.551 32.5805 15.9202 32.5805 13.8697C32.5805 11.8493 31.0583 10.3063 29.0102 10.3063ZM48.3444 13.9286C48.3444 11.9159 49.8355 10.4006 51.8556 10.4006C53.8758 10.4006 55.3669 11.9159 55.3669 13.9286C55.3669 15.9414 53.8758 17.4567 51.8556 17.4567C49.8355 17.4567 48.3444 15.9414 48.3444 13.9286ZM101.894 10.3416C100.221 10.3416 98.9626 11.263 98.6745 12.6503L98.6574 12.7395H104.899L104.883 12.6461C104.631 11.226 103.526 10.3416 101.894 10.3416Z" fill="black"/>
</svg>
