<svg width="40" height="40" viewBox="0 0 40 40" fill="none" xmlns="http://www.w3.org/2000/svg">
<circle opacity="0.08" cx="20" cy="20" r="20" fill="white"/>
<path d="M17.2778 29.3335C18.9952 29.3335 20.3889 27.9398 20.3889 26.2224V23.1113H17.2778C15.5605 23.1113 14.1667 24.5051 14.1667 26.2224C14.1667 27.9398 15.5605 29.3335 17.2778 29.3335Z" fill="#5FCC89"/>
<path d="M14.1667 20C14.1667 18.2827 15.5605 16.8889 17.2778 16.8889H20.3889V23.1111H17.2778C15.5605 23.1111 14.1667 21.7173 14.1667 20Z" fill="#985DF6"/>
<path d="M14.1682 13.7778C14.1682 12.0605 15.562 10.6667 17.2793 10.6667H20.3904V16.889H17.2793C15.562 16.889 14.1682 15.4952 14.1682 13.7778Z" fill="#E05A32"/>
<path d="M20.3894 10.6667H23.5005C25.2178 10.6667 26.6116 12.0605 26.6116 13.7778C26.6116 15.4952 25.2178 16.889 23.5005 16.889H20.3894V10.6667Z" fill="#EE7A69"/>
<path d="M26.6116 20C26.6116 21.7173 25.2178 23.1111 23.5005 23.1111C21.7832 23.1111 20.3894 21.7173 20.3894 20C20.3894 18.2827 21.7832 16.8889 23.5005 16.8889C25.2178 16.8889 26.6116 18.2827 26.6116 20Z" fill="#58B9F8"/>
</svg>
