<svg width="200" height="124" viewBox="0 0 200 124" fill="none" xmlns="http://www.w3.org/2000/svg">
<g filter="url(#filter0_d)">
<path d="M16 0H161.6C167.556 0 170.534 0 172.944 0.783096C177.815 2.36578 181.634 6.18472 183.217 11.0557C184 13.4658 184 16.4439 184 22.4V69.6C184 75.5561 184 78.5342 183.217 80.9443C181.634 85.8153 177.815 89.6342 172.944 91.2169C170.534 92 167.556 92 161.6 92H38.4C32.4439 92 29.4658 92 27.0557 91.2169C22.1847 89.6342 18.3658 85.8153 16.7831 80.9443C16 78.5342 16 75.5561 16 69.6V0Z" fill="#5552FF"/>
<path d="M41.5753 21.1293C41.2273 18.9517 39.5221 17.679 37.3694 17.679C34.7344 17.679 32.7905 19.6527 32.7905 22.9091C32.7905 26.1655 34.7245 28.1392 37.3694 28.1392C39.6066 28.1392 41.2422 26.7372 41.5753 24.7238L40.0242 24.7188C39.7607 26.0213 38.6669 26.7372 37.3793 26.7372C35.6343 26.7372 34.3168 25.3999 34.3168 22.9091C34.3168 20.4382 35.6293 19.081 37.3843 19.081C38.6819 19.081 39.7706 19.8118 40.0242 21.1293H41.5753Z" fill="white"/>
<path d="M44.7808 23.4659C44.7808 22.2479 45.5514 21.5519 46.6103 21.5519C47.6345 21.5519 48.246 22.2032 48.246 23.3218V28H49.7325V23.1428C49.7325 21.2387 48.6884 20.2642 47.1174 20.2642C45.9292 20.2642 45.2133 20.7813 44.8553 21.6066H44.7609V17.8182H43.2943V28H44.7808V23.4659Z" fill="white"/>
<path d="M53.9384 28.1691C55.2012 28.1691 55.9122 27.5277 56.1955 26.956H56.2552V28H57.7069V22.929C57.7069 20.7067 55.9569 20.2642 54.7438 20.2642C53.3617 20.2642 52.089 20.8211 51.5918 22.2131L52.9889 22.5313C53.2076 21.9894 53.7644 21.4674 54.7637 21.4674C55.7232 21.4674 56.2154 21.9695 56.2154 22.8346V22.8694C56.2154 23.4113 55.6586 23.4013 54.2864 23.5604C52.8397 23.7294 51.3582 24.1073 51.3582 25.8424C51.3582 27.3438 52.4867 28.1691 53.9384 28.1691ZM54.2616 26.9759C53.4214 26.9759 52.8149 26.598 52.8149 25.8622C52.8149 25.0668 53.5208 24.7834 54.3809 24.6691C54.8631 24.6044 56.0066 24.4752 56.2204 24.2614V25.2458C56.2204 26.1506 55.4995 26.9759 54.2616 26.9759Z" fill="white"/>
<path d="M63.2515 20.3637H61.6854V18.5341H60.1989V20.3637H59.0803V21.5569H60.1989V26.0661C60.1939 27.4532 61.2529 28.1243 62.4262 28.0995C62.8985 28.0945 63.2167 28.005 63.3907 27.9404L63.1222 26.7124C63.0228 26.7323 62.8388 26.777 62.6002 26.777C62.1179 26.777 61.6854 26.6179 61.6854 25.7578V21.5569H63.2515V20.3637Z" fill="white"/>
<path d="M68.7202 28H70.1719V26.8118H70.2962C70.5647 27.299 71.1116 28.1492 72.5036 28.1492C74.353 28.1492 75.6954 26.6676 75.6954 24.1968C75.6954 21.7209 74.3331 20.2642 72.4887 20.2642C71.0718 20.2642 70.5597 21.1293 70.2962 21.6016H70.2067V17.8182H68.7202V28ZM70.1769 24.1819C70.1769 22.586 70.8729 21.527 72.1705 21.527C73.5178 21.527 74.1939 22.6655 74.1939 24.1819C74.1939 25.7131 73.4979 26.8814 72.1705 26.8814C70.8928 26.8814 70.1769 25.7877 70.1769 24.1819Z" fill="white"/>
<path d="M82.2019 24.8331C82.2069 26.1307 81.2424 26.7472 80.4072 26.7472C79.4874 26.7472 78.8511 26.081 78.8511 25.0419V20.3637H77.3646V25.2209C77.3646 27.1151 78.4036 28.0995 79.8703 28.0995C81.0187 28.0995 81.7992 27.4929 82.1522 26.6776H82.2318V28H83.6934V20.3637H82.2019V24.8331Z" fill="white"/>
<path d="M85.8101 28H87.2618V26.8118H87.3861C87.6545 27.299 88.2014 28.1492 89.5934 28.1492C91.4429 28.1492 92.7852 26.6676 92.7852 24.1968C92.7852 21.7209 91.423 20.2642 89.5785 20.2642C88.1616 20.2642 87.6495 21.1293 87.3861 21.6016H87.2966V17.8182H85.8101V28ZM87.2667 24.1819C87.2667 22.586 87.9628 21.527 89.2603 21.527C90.6076 21.527 91.2838 22.6655 91.2838 24.1819C91.2838 25.7131 90.5878 26.8814 89.2603 26.8814C87.9826 26.8814 87.2667 25.7877 87.2667 24.1819Z" fill="white"/>
<path d="M94.5737 28H96.0254V26.8118H96.1497C96.4182 27.299 96.9651 28.1492 98.3571 28.1492C100.207 28.1492 101.549 26.6676 101.549 24.1968C101.549 21.7209 100.187 20.2642 98.3422 20.2642C96.9253 20.2642 96.4132 21.1293 96.1497 21.6016H96.0602V17.8182H94.5737V28ZM96.0304 24.1819C96.0304 22.586 96.7264 21.527 98.024 21.527C99.3713 21.527 100.047 22.6655 100.047 24.1819C100.047 25.7131 99.3514 26.8814 98.024 26.8814C96.7463 26.8814 96.0304 25.7877 96.0304 24.1819Z" fill="white"/>
<path d="M104.705 17.8182H103.218V28H104.705V17.8182Z" fill="white"/>
<path d="M109.996 28.1542C111.661 28.1542 112.839 27.3338 113.177 26.0909L111.77 25.8374C111.502 26.5583 110.856 26.9262 110.011 26.9262C108.738 26.9262 107.883 26.1009 107.843 24.6293H113.272V24.1023C113.272 21.3431 111.621 20.2642 109.891 20.2642C107.763 20.2642 106.361 21.885 106.361 24.2316C106.361 26.603 107.743 28.1542 109.996 28.1542ZM107.848 23.5157C107.908 22.4319 108.693 21.4922 109.901 21.4922C111.055 21.4922 111.81 22.3473 111.815 23.5157H107.848Z" fill="white"/>
<path d="M122.261 20.3637H120.615V19.6776C120.615 19.0015 120.893 18.6336 121.619 18.6336C121.927 18.6336 122.146 18.7032 122.285 18.7479L122.633 17.5448C122.425 17.4652 121.992 17.3409 121.39 17.3409C120.182 17.3409 119.123 18.0469 119.123 19.4787V20.3637H117.945V21.5569H119.123V28H120.615V21.5569H122.261V20.3637Z" fill="white"/>
<path d="M126.71 28.1542C128.863 28.1542 130.27 26.5782 130.27 24.2167C130.27 21.8402 128.863 20.2642 126.71 20.2642C124.557 20.2642 123.15 21.8402 123.15 24.2167C123.15 26.5782 124.557 28.1542 126.71 28.1542ZM126.715 26.9063C125.308 26.9063 124.652 25.6783 124.652 24.2117C124.652 22.75 125.308 21.5071 126.715 21.5071C128.112 21.5071 128.768 22.75 128.768 24.2117C128.768 25.6783 128.112 26.9063 126.715 26.9063Z" fill="white"/>
<path d="M131.929 28H133.416V23.3367C133.416 22.3374 134.186 21.6165 135.24 21.6165C135.548 21.6165 135.896 21.6712 136.016 21.706V20.2841C135.867 20.2642 135.573 20.2493 135.384 20.2493C134.489 20.2493 133.724 20.7564 133.445 21.5767H133.366V20.3637H131.929V28Z" fill="white"/>
<path d="M32.9993 50H34.4858V45.2919C34.4858 44.2628 35.2067 43.5469 36.0519 43.5469C36.8772 43.5469 37.4489 44.0938 37.4489 44.924V50H38.9304V45.1328C38.9304 44.2131 39.4922 43.5469 40.4617 43.5469C41.2472 43.5469 41.8935 43.9844 41.8935 45.0185V50H43.38V44.8793C43.38 43.1343 42.4056 42.2642 41.0235 42.2642C39.9248 42.2642 39.0995 42.7912 38.7316 43.6066H38.652C38.3189 42.7713 37.6179 42.2642 36.5988 42.2642C35.5895 42.2642 34.8388 42.7664 34.5206 43.6066H34.4262V42.3637H32.9993V50Z" fill="white"/>
<path d="M48.6636 50.1542C50.3291 50.1542 51.5073 49.3338 51.8454 48.0909L50.4384 47.8374C50.17 48.5583 49.5237 48.9262 48.6785 48.9262C47.4058 48.9262 46.5506 48.1009 46.5109 46.6293H51.9399V46.1023C51.9399 43.3431 50.2893 42.2642 48.5592 42.2642C46.4313 42.2642 45.0293 43.885 45.0293 46.2316C45.0293 48.603 46.4114 50.1542 48.6636 50.1542ZM46.5158 45.5157C46.5755 44.4319 47.361 43.4922 48.5691 43.4922C49.7225 43.4922 50.4782 44.3473 50.4832 45.5157H46.5158Z" fill="white"/>
<path d="M59.3115 44.228C59.0032 43.0398 58.0736 42.2642 56.423 42.2642C54.6978 42.2642 53.4748 43.174 53.4748 44.5263C53.4748 45.6101 54.1311 46.331 55.5629 46.6492L56.8555 46.9326C57.5913 47.0966 57.9343 47.4248 57.9343 47.902C57.9343 48.4936 57.303 48.956 56.3285 48.956C55.4386 48.956 54.8669 48.5732 54.6879 47.8225L53.2511 48.0412C53.4997 49.3935 54.6233 50.1542 56.3385 50.1542C58.1829 50.1542 59.4606 49.1748 59.4606 47.7926C59.4606 46.7138 58.7745 46.0476 57.3726 45.7245L56.1595 45.4461C55.3193 45.2472 54.9564 44.9638 54.9613 44.4468C54.9564 43.8601 55.5927 43.4425 56.4379 43.4425C57.3626 43.4425 57.7902 43.9546 57.9642 44.4667L59.3115 44.228Z" fill="white"/>
<path d="M66.8173 44.228C66.5091 43.0398 65.5794 42.2642 63.9288 42.2642C62.2037 42.2642 60.9807 43.174 60.9807 44.5263C60.9807 45.6101 61.6369 46.331 63.0688 46.6492L64.3614 46.9326C65.0972 47.0966 65.4402 47.4248 65.4402 47.902C65.4402 48.4936 64.8088 48.956 63.8344 48.956C62.9445 48.956 62.3727 48.5732 62.1938 47.8225L60.757 48.0412C61.0055 49.3935 62.1291 50.1542 63.8443 50.1542C65.6888 50.1542 66.9665 49.1748 66.9665 47.7926C66.9665 46.7138 66.2804 46.0476 64.8784 45.7245L63.6653 45.4461C62.8252 45.2472 62.4622 44.9638 62.4672 44.4468C62.4622 43.8601 63.0986 43.4425 63.9438 43.4425C64.8685 43.4425 65.296 43.9546 65.47 44.4667L66.8173 44.228Z" fill="white"/>
<path d="M70.8232 50.1691C72.086 50.1691 72.7969 49.5277 73.0803 48.956H73.14V50H74.5917V44.929C74.5917 42.7067 72.8417 42.2642 71.6286 42.2642C70.2465 42.2642 68.9738 42.8211 68.4766 44.2131L69.8736 44.5313C70.0924 43.9894 70.6492 43.4674 71.6485 43.4674C72.608 43.4674 73.1002 43.9695 73.1002 44.8346V44.8694C73.1002 45.4113 72.5434 45.4013 71.1712 45.5604C69.7245 45.7294 68.2429 46.1073 68.2429 47.8424C68.2429 49.3438 69.3715 50.1691 70.8232 50.1691ZM71.1464 48.9759C70.3062 48.9759 69.6996 48.598 69.6996 47.8622C69.6996 47.0668 70.4056 46.7834 71.2657 46.6691C71.7479 46.6044 72.8914 46.4752 73.1052 46.2614V47.2458C73.1052 48.1506 72.3843 48.9759 71.1464 48.9759Z" fill="white"/>
<path d="M79.7733 53.0078C81.7172 53.0078 83.2186 52.1179 83.2186 50.1691V42.3637H81.7619V43.6016H81.6526C81.3891 43.1293 80.8621 42.2642 79.4402 42.2642C77.5957 42.2642 76.2385 43.7209 76.2385 46.152C76.2385 48.5881 77.6256 49.8857 79.4303 49.8857C80.8323 49.8857 81.3742 49.0952 81.6426 48.608H81.7371V50.1094C81.7371 51.2877 80.9168 51.8097 79.7882 51.8097C78.5503 51.8097 78.068 51.1882 77.8046 50.7657L76.5269 51.2926C76.9296 52.2124 77.9487 53.0078 79.7733 53.0078ZM79.7584 48.6527C78.431 48.6527 77.7399 47.6336 77.7399 46.1321C77.7399 44.6655 78.4161 43.527 79.7584 43.527C81.056 43.527 81.752 44.586 81.752 46.1321C81.752 47.7081 81.0411 48.6527 79.7584 48.6527Z" fill="white"/>
<path d="M88.5034 50.1542C90.1689 50.1542 91.3472 49.3338 91.6852 48.0909L90.2783 47.8374C90.0098 48.5583 89.3635 48.9262 88.5183 48.9262C87.2456 48.9262 86.3905 48.1009 86.3507 46.6293H91.7797V46.1023C91.7797 43.3431 90.1291 42.2642 88.399 42.2642C86.2712 42.2642 84.8692 43.885 84.8692 46.2316C84.8692 48.603 86.2513 50.1542 88.5034 50.1542ZM86.3557 45.5157C86.4153 44.4319 87.2009 43.4922 88.409 43.4922C89.5624 43.4922 90.318 44.3473 90.323 45.5157H86.3557Z" fill="white"/>
<path d="M97.1341 50H98.6206V42.3637H97.1341V50ZM97.8848 41.1854C98.3969 41.1854 98.8244 40.7877 98.8244 40.3005C98.8244 39.8132 98.3969 39.4105 97.8848 39.4105C97.3678 39.4105 96.9452 39.8132 96.9452 40.3005C96.9452 40.7877 97.3678 41.1854 97.8848 41.1854Z" fill="white"/>
<path d="M102.107 45.4659C102.107 44.2479 102.853 43.5519 103.887 43.5519C104.896 43.5519 105.507 44.2131 105.507 45.3218V50H106.994V45.1428C106.994 43.2536 105.955 42.2642 104.394 42.2642C103.245 42.2642 102.495 42.7962 102.142 43.6066H102.047V42.3637H100.62V50H102.107V45.4659Z" fill="white"/>
<path d="M112.552 42.3637H110.986V40.5341H109.5V42.3637H108.381V43.5569H109.5V48.0661C109.495 49.4532 110.554 50.1243 111.727 50.0995C112.199 50.0945 112.517 50.005 112.691 49.9404L112.423 48.7124C112.324 48.7323 112.14 48.777 111.901 48.777C111.419 48.777 110.986 48.6179 110.986 47.7578V43.5569H112.552V42.3637Z" fill="white"/>
<path d="M117.406 50.1542C119.071 50.1542 120.25 49.3338 120.588 48.0909L119.181 47.8374C118.912 48.5583 118.266 48.9262 117.421 48.9262C116.148 48.9262 115.293 48.1009 115.253 46.6293H120.682V46.1023C120.682 43.3431 119.031 42.2642 117.301 42.2642C115.174 42.2642 113.772 43.885 113.772 46.2316C113.772 48.603 115.154 50.1542 117.406 50.1542ZM115.258 45.5157C115.318 44.4319 116.103 43.4922 117.311 43.4922C118.465 43.4922 119.22 44.3473 119.225 45.5157H115.258Z" fill="white"/>
<path d="M122.331 50H123.818V45.3367C123.818 44.3374 124.588 43.6165 125.642 43.6165C125.951 43.6165 126.299 43.6712 126.418 43.706V42.2841C126.269 42.2642 125.976 42.2493 125.787 42.2493C124.892 42.2493 124.126 42.7564 123.848 43.5767H123.768V42.3637H122.331V50Z" fill="white"/>
<path d="M131.79 42.3637H130.144V41.6776C130.144 41.0015 130.423 40.6336 131.148 40.6336C131.457 40.6336 131.675 40.7032 131.815 40.7479L132.163 39.5448C131.954 39.4652 131.521 39.3409 130.92 39.3409C129.712 39.3409 128.653 40.0469 128.653 41.4787V42.3637H127.474V43.5569H128.653V50H130.144V43.5569H131.79V42.3637Z" fill="white"/>
<path d="M135.313 50.1691C136.576 50.1691 137.287 49.5277 137.571 48.956H137.63V50H139.082V44.929C139.082 42.7067 137.332 42.2642 136.119 42.2642C134.737 42.2642 133.464 42.8211 132.967 44.2131L134.364 44.5313C134.583 43.9894 135.139 43.4674 136.139 43.4674C137.098 43.4674 137.59 43.9695 137.59 44.8346V44.8694C137.59 45.4113 137.034 45.4013 135.661 45.5604C134.215 45.7294 132.733 46.1073 132.733 47.8424C132.733 49.3438 133.862 50.1691 135.313 50.1691ZM135.637 48.9759C134.796 48.9759 134.19 48.598 134.19 47.8622C134.19 47.0668 134.896 46.7834 135.756 46.6691C136.238 46.6044 137.382 46.4752 137.595 46.2614V47.2458C137.595 48.1506 136.875 48.9759 135.637 48.9759Z" fill="white"/>
<path d="M144.278 50.1542C146.083 50.1542 147.251 49.0703 147.416 47.5838H145.969C145.78 48.4091 145.139 48.8963 144.288 48.8963C143.031 48.8963 142.22 47.8473 142.22 46.1819C142.22 44.5462 143.046 43.5171 144.288 43.5171C145.233 43.5171 145.81 44.1137 145.969 44.8296H147.416C147.256 43.2884 145.999 42.2642 144.264 42.2642C142.111 42.2642 140.719 43.885 140.719 46.2167C140.719 48.5185 142.061 50.1542 144.278 50.1542Z" fill="white"/>
<path d="M152.296 50.1542C153.962 50.1542 155.14 49.3338 155.478 48.0909L154.071 47.8374C153.803 48.5583 153.156 48.9262 152.311 48.9262C151.039 48.9262 150.183 48.1009 150.144 46.6293H155.573V46.1023C155.573 43.3431 153.922 42.2642 152.192 42.2642C150.064 42.2642 148.662 43.885 148.662 46.2316C148.662 48.603 150.044 50.1542 152.296 50.1542ZM150.149 45.5157C150.208 44.4319 150.994 43.4922 152.202 43.4922C153.355 43.4922 154.111 44.3473 154.116 45.5157H150.149Z" fill="white"/>
<path d="M162.944 44.228C162.636 43.0398 161.706 42.2642 160.056 42.2642C158.331 42.2642 157.108 43.174 157.108 44.5263C157.108 45.6101 157.764 46.331 159.196 46.6492L160.488 46.9326C161.224 47.0966 161.567 47.4248 161.567 47.902C161.567 48.4936 160.936 48.956 159.961 48.956C159.071 48.956 158.5 48.5732 158.321 47.8225L156.884 48.0412C157.132 49.3935 158.256 50.1542 159.971 50.1542C161.816 50.1542 163.093 49.1748 163.093 47.7926C163.093 46.7138 162.407 46.0476 161.005 45.7245L159.792 45.4461C158.952 45.2472 158.589 44.9638 158.594 44.4468C158.589 43.8601 159.226 43.4425 160.071 43.4425C160.995 43.4425 161.423 43.9546 161.597 44.4667L162.944 44.228Z" fill="white"/>
<path d="M165.707 50.0945C166.249 50.0945 166.702 49.652 166.702 49.1002C166.702 48.5583 166.249 48.1108 165.707 48.1108C165.16 48.1108 164.713 48.5583 164.713 49.1002C164.713 49.652 165.16 50.0945 165.707 50.0945Z" fill="white"/>
<g opacity="0.56">
<path d="M35.2314 76.1207C36.911 76.1207 37.8947 74.75 37.8947 72.3672C37.8947 70.0021 36.8968 68.6278 35.2314 68.6278C33.5623 68.6278 32.568 69.9985 32.5645 72.3672C32.5645 74.7464 33.5481 76.1172 35.2314 76.1207ZM35.2314 75.1726C34.2477 75.1726 33.6547 74.1853 33.6547 72.3672C33.6582 70.5561 34.2512 69.5582 35.2314 69.5582C36.2079 69.5582 36.8045 70.5561 36.8045 72.3672C36.8045 74.1853 36.2115 75.1726 35.2314 75.1726Z" fill="white"/>
<path d="M41.9137 68.7272H40.8448L39.0302 69.9133V70.9645L40.7702 69.8281H40.8129V76H41.9137V68.7272Z" fill="white"/>
<path d="M44.5948 71.4545C44.9819 71.4545 45.305 71.1385 45.305 70.7443C45.305 70.3572 44.9819 70.0376 44.5948 70.0376C44.2042 70.0376 43.8846 70.3572 43.8846 70.7443C43.8846 71.1385 44.2042 71.4545 44.5948 71.4545ZM44.5948 75.098C44.9819 75.098 45.305 74.7819 45.305 74.3878C45.305 74.0007 44.9819 73.6811 44.5948 73.6811C44.2042 73.6811 43.8846 74.0007 43.8846 74.3878C43.8846 74.7819 44.2042 75.098 44.5948 75.098Z" fill="white"/>
<path d="M49.4723 68.7272H48.4034L46.5888 69.9133V70.9645L48.3288 69.8281H48.3714V76H49.4723V68.7272Z" fill="white"/>
<path d="M51.4396 76H56.2266V75.0589H52.9524V75.0056L54.3977 73.4929C55.7294 72.147 56.1094 71.5042 56.1094 70.691C56.1094 69.5227 55.1577 68.6278 53.7869 68.6278C52.4268 68.6278 51.4325 69.5085 51.4325 70.8366H52.4801C52.4766 70.0554 52.9808 69.544 53.7656 69.544C54.5043 69.544 55.0653 69.9985 55.0653 70.723C55.0653 71.3657 54.6818 71.8274 53.9006 72.6548L51.4396 75.2045V76Z" fill="white"/>
<path d="M60.3184 76H61.4157V73.4431H62.9071C64.5939 73.4431 65.4284 72.424 65.4284 71.0816C65.4284 69.7429 64.601 68.7272 62.9107 68.7272H60.3184V76ZM61.4157 72.5128V69.6683H62.7935C63.8801 69.6683 64.324 70.2578 64.324 71.0816C64.324 71.9055 63.8801 72.5128 62.8077 72.5128H61.4157Z" fill="white"/>
<path d="M66.7148 68.7272V76H67.7589V70.7336H67.8264L69.9712 75.9893H70.8377L72.9826 70.7372H73.0501V76H74.0941V68.7272H72.7624L70.4471 74.3806H70.3619L68.0465 68.7272H66.7148Z" fill="white"/>
<path d="M76.9856 75.0056H75.9629L75.9274 75.4034C75.8457 76.3657 75.6184 77.3352 75.5225 77.7755H76.2754C76.4458 77.3103 76.8223 76.245 76.9324 75.3927L76.9856 75.0056Z" fill="white"/>
<path d="M85.0662 70.6378H86.1245C86.0925 69.473 85.0627 68.6278 83.5854 68.6278C82.1259 68.6278 81.0073 69.4623 81.0073 70.7159C81.0073 71.7279 81.7317 72.321 82.9 72.637L83.7594 72.8714C84.5371 73.0774 85.1373 73.3331 85.1373 73.9794C85.1373 74.6896 84.459 75.1583 83.525 75.1583C82.6799 75.1583 81.9767 74.7819 81.9128 73.99H80.812C80.883 75.3075 81.9022 76.1207 83.5321 76.1207C85.2402 76.1207 86.2239 75.2223 86.2239 73.99C86.2239 72.6797 85.0556 72.1718 84.1323 71.9446L83.4221 71.7599C82.8539 71.6143 82.0975 71.348 82.101 70.652C82.101 70.0341 82.6657 69.576 83.5605 69.576C84.3951 69.576 84.9881 69.9666 85.0662 70.6378Z" fill="white"/>
<path d="M89.0373 76.1207C89.9393 76.1207 90.4471 75.6626 90.6495 75.2542H90.6921V76H91.729V72.3778C91.729 70.7904 90.479 70.4744 89.6126 70.4744C88.6254 70.4744 87.7163 70.8721 87.3611 71.8664L88.359 72.0937C88.5153 71.7066 88.913 71.3338 89.6268 71.3338C90.3121 71.3338 90.6637 71.6924 90.6637 72.3103V72.3352C90.6637 72.7223 90.266 72.7152 89.2859 72.8288C88.2525 72.9495 87.1942 73.2194 87.1942 74.4588C87.1942 75.5312 88.0004 76.1207 89.0373 76.1207ZM89.2681 75.2684C88.668 75.2684 88.2347 74.9985 88.2347 74.473C88.2347 73.9048 88.739 73.7024 89.3533 73.6207C89.6978 73.5745 90.5146 73.4822 90.6673 73.3295V74.0326C90.6673 74.6789 90.1523 75.2684 89.2681 75.2684Z" fill="white"/>
<path d="M95.6895 70.5454H94.5708V69.2386H93.5091V70.5454H92.71V71.3977H93.5091V74.6186C93.5055 75.6093 94.2619 76.0887 95.1 76.071C95.4373 76.0674 95.6646 76.0035 95.7889 75.9574L95.5971 75.0802C95.5261 75.0944 95.3947 75.1264 95.2243 75.1264C94.8798 75.1264 94.5708 75.0128 94.5708 74.3984V71.3977H95.6895V70.5454Z" fill="white"/>
</g>
</g>
<defs>
<filter id="filter0_d" x="0" y="0" width="200" height="124" filterUnits="userSpaceOnUse" color-interpolation-filters="sRGB">
<feFlood flood-opacity="0" result="BackgroundImageFix"/>
<feColorMatrix in="SourceAlpha" type="matrix" values="0 0 0 0 0 0 0 0 0 0 0 0 0 0 0 0 0 0 127 0"/>
<feOffset dy="16"/>
<feGaussianBlur stdDeviation="8"/>
<feColorMatrix type="matrix" values="0 0 0 0 0 0 0 0 0 0 0 0 0 0 0 0 0 0 0.1 0"/>
<feBlend mode="normal" in2="BackgroundImageFix" result="effect1_dropShadow"/>
<feBlend mode="normal" in="SourceGraphic" in2="effect1_dropShadow" result="shape"/>
</filter>
</defs>
</svg>
