<svg width="318" height="54" viewBox="0 0 318 54" fill="none" xmlns="http://www.w3.org/2000/svg">
<g filter="url(#filter0_d)">
<path d="M7 13.48C7 9.30119 7 7.21179 7.76138 5.59377C8.55403 3.90931 9.90931 2.55403 11.5938 1.76138C13.2118 1 15.3012 1 19.48 1H298.52C302.699 1 304.788 1 306.406 1.76138C308.091 2.55403 309.446 3.90931 310.239 5.59377C311 7.21179 311 9.30119 311 13.48V28.52C311 32.6988 311 34.7882 310.239 36.4062C309.446 38.0907 308.091 39.446 306.406 40.2386C304.788 41 302.699 41 298.52 41H19.48C15.3012 41 13.2118 41 11.5938 40.2386C9.90931 39.446 8.55403 38.0907 7.76138 36.4062C7 34.7882 7 32.6988 7 28.52V13.48Z" fill="white"/>
<path d="M32.9631 20.9091C32.9631 17.6528 31.0142 15.679 28.3793 15.679C25.7344 15.679 23.7905 17.6528 23.7905 20.9091C23.7905 24.1606 25.7344 26.1393 28.3793 26.1393C31.0142 26.1393 32.9631 24.1655 32.9631 20.9091ZM31.4418 20.9091C31.4418 23.39 30.1293 24.7373 28.3793 24.7373C26.6243 24.7373 25.3168 23.39 25.3168 20.9091C25.3168 18.4283 26.6243 17.081 28.3793 17.081C30.1293 17.081 31.4418 18.4283 31.4418 20.9091Z" fill="#0A1F44"/>
<path d="M36.2456 21.466C36.2456 20.2479 36.9913 19.5519 38.0254 19.5519C39.0347 19.5519 39.6462 20.2131 39.6462 21.3218V26.0001H41.1327V21.1428C41.1327 19.2536 40.0936 18.2643 38.5325 18.2643C37.3841 18.2643 36.6334 18.7962 36.2804 19.6066H36.1859V18.3637H34.7591V26.0001H36.2456V21.466Z" fill="#0A1F44"/>
<path d="M46.9507 26.0001H48.4869V21.5604H52.8122V20.243H48.4869V17.1407H53.2646V15.8182H46.9507V26.0001Z" fill="#0A1F44"/>
<path d="M57.6906 26.1542C59.8433 26.1542 61.2502 24.5782 61.2502 22.2167C61.2502 19.8403 59.8433 18.2643 57.6906 18.2643C55.5379 18.2643 54.1309 19.8403 54.1309 22.2167C54.1309 24.5782 55.5379 26.1542 57.6906 26.1542ZM57.6955 24.9063C56.2886 24.9063 55.6323 23.6783 55.6323 22.2117C55.6323 20.7501 56.2886 19.5072 57.6955 19.5072C59.0926 19.5072 59.7488 20.7501 59.7488 22.2117C59.7488 23.6783 59.0926 24.9063 57.6955 24.9063Z" fill="#0A1F44"/>
<path d="M66.1261 26.1542C67.9308 26.1542 69.0991 25.0704 69.2632 23.5839H67.8165C67.6275 24.4091 66.9862 24.8964 66.1361 24.8964C64.8782 24.8964 64.0679 23.8474 64.0679 22.1819C64.0679 20.5462 64.8932 19.5171 66.1361 19.5171C67.0807 19.5171 67.6574 20.1137 67.8165 20.8296H69.2632C69.1041 19.2884 67.8463 18.2643 66.1112 18.2643C63.9585 18.2643 62.5665 19.885 62.5665 22.2167C62.5665 24.5185 63.9088 26.1542 66.1261 26.1542Z" fill="#0A1F44"/>
<path d="M75.6902 22.8332C75.6952 24.1307 74.7307 24.7472 73.8955 24.7472C72.9757 24.7472 72.3394 24.081 72.3394 23.042V18.3637H70.8528V23.2209C70.8528 25.1151 71.8919 26.0995 73.3585 26.0995C74.507 26.0995 75.2875 25.493 75.6405 24.6776H75.72V26.0001H77.1817V18.3637H75.6902V22.8332Z" fill="#0A1F44"/>
<path d="M84.9013 20.228C84.5931 19.0398 83.6634 18.2643 82.0128 18.2643C80.2877 18.2643 79.0647 19.1741 79.0647 20.5263C79.0647 21.6101 79.7209 22.331 81.1527 22.6492L82.4454 22.9326C83.1812 23.0966 83.5242 23.4248 83.5242 23.902C83.5242 24.4937 82.8928 24.956 81.9184 24.956C81.0285 24.956 80.4567 24.5732 80.2777 23.8225L78.841 24.0412C79.0895 25.3935 80.2131 26.1542 81.9283 26.1542C83.7728 26.1542 85.0505 25.1748 85.0505 23.7927C85.0505 22.7138 84.3644 22.0476 82.9624 21.7245L81.7493 21.4461C80.9091 21.2472 80.5462 20.9638 80.5512 20.4468C80.5462 19.8601 81.1826 19.4425 82.0277 19.4425C82.9525 19.4425 83.38 19.9546 83.554 20.4667L84.9013 20.228Z" fill="#0A1F44"/>
<path d="M92.4532 12.537H91.1208V29.2813H92.4532V12.537Z" fill="#0A1F44"/>
<path fill-rule="evenodd" clip-rule="evenodd" d="M289 29.3333C293.602 29.3333 297.333 25.6023 297.333 21C297.333 16.3976 293.602 12.6666 289 12.6666C284.397 12.6666 280.667 16.3976 280.667 21C280.667 25.6023 284.397 29.3333 289 29.3333ZM291.762 18.3274C292.087 18.0019 292.615 18.0019 292.94 18.3274C293.266 18.6528 293.266 19.1804 292.94 19.5059L287.94 24.5059C287.615 24.8313 287.087 24.8313 286.762 24.5059L284.661 22.4048C284.335 22.0794 284.335 21.5518 284.661 21.2263C284.986 20.9009 285.514 20.9009 285.839 21.2263L287.351 22.7381L291.762 18.3274Z" fill="#BAB9FF"/>
<path d="M7 13.48C7 9.30119 7 7.21179 7.76138 5.59377C8.55403 3.90931 9.90931 2.55403 11.5938 1.76138C13.2118 1 15.3012 1 19.48 1H298.52C302.699 1 304.788 1 306.406 1.76138C308.091 2.55403 309.446 3.90931 310.239 5.59377C311 7.21179 311 9.30119 311 13.48V28.52C311 32.6988 311 34.7882 310.239 36.4062C309.446 38.0907 308.091 39.446 306.406 40.2386C304.788 41 302.699 41 298.52 41H19.48C15.3012 41 13.2118 41 11.5938 40.2386C9.90931 39.446 8.55403 38.0907 7.76138 36.4062C7 34.7882 7 32.6988 7 28.52V13.48Z" stroke="#9392FF" stroke-width="2"/>
</g>
<defs>
<filter id="filter0_d" x="0" y="0" width="318" height="54" filterUnits="userSpaceOnUse" color-interpolation-filters="sRGB">
<feFlood flood-opacity="0" result="BackgroundImageFix"/>
<feColorMatrix in="SourceAlpha" type="matrix" values="0 0 0 0 0 0 0 0 0 0 0 0 0 0 0 0 0 0 127 0"/>
<feOffset dy="6"/>
<feGaussianBlur stdDeviation="3"/>
<feColorMatrix type="matrix" values="0 0 0 0 0 0 0 0 0 0 0 0 0 0 0 0 0 0 0.08 0"/>
<feBlend mode="normal" in2="BackgroundImageFix" result="effect1_dropShadow"/>
<feBlend mode="normal" in="SourceGraphic" in2="effect1_dropShadow" result="shape"/>
</filter>
</defs>
</svg>
