<svg width="200" height="124" viewBox="0 0 200 124" fill="none" xmlns="http://www.w3.org/2000/svg">
<g filter="url(#filter0_d)">
<path d="M16 0H161.6C167.556 0 170.534 0 172.944 0.783096C177.815 2.36578 181.634 6.18472 183.217 11.0557C184 13.4658 184 16.4439 184 22.4V69.6C184 75.5561 184 78.5342 183.217 80.9443C181.634 85.8153 177.815 89.6342 172.944 91.2169C170.534 92 167.556 92 161.6 92H38.4C32.4439 92 29.4658 92 27.0557 91.2169C22.1847 89.6342 18.3658 85.8153 16.7831 80.9443C16 78.5342 16 75.5561 16 69.6V0Z" fill="#5552FF"/>
<path d="M41.5753 21.1292C41.2273 18.9516 39.5221 17.6789 37.3694 17.6789C34.7344 17.6789 32.7905 19.6526 32.7905 22.909C32.7905 26.1654 34.7245 28.1391 37.3694 28.1391C39.6066 28.1391 41.2422 26.7371 41.5753 24.7236L40.0242 24.7187C39.7607 26.0212 38.6669 26.7371 37.3793 26.7371C35.6343 26.7371 34.3168 25.3998 34.3168 22.909C34.3168 20.4381 35.6293 19.0809 37.3843 19.0809C38.6819 19.0809 39.7706 19.8117 40.0242 21.1292H41.5753Z" fill="white"/>
<path d="M44.7808 23.4658C44.7808 22.2478 45.5514 21.5518 46.6103 21.5518C47.6345 21.5518 48.246 22.203 48.246 23.3216V27.9999H49.7325V23.1427C49.7325 21.2385 48.6884 20.2641 47.1174 20.2641C45.9292 20.2641 45.2133 20.7812 44.8553 21.6064H44.7609V17.8181H43.2943V27.9999H44.7808V23.4658Z" fill="white"/>
<path d="M53.9384 28.1689C55.2012 28.1689 55.9122 27.5276 56.1955 26.9559H56.2552V27.9999H57.7069V22.9289C57.7069 20.7066 55.9569 20.2641 54.7438 20.2641C53.3617 20.2641 52.089 20.8209 51.5918 22.213L52.9889 22.5312C53.2076 21.9893 53.7644 21.4672 54.7637 21.4672C55.7232 21.4672 56.2154 21.9694 56.2154 22.8344V22.8692C56.2154 23.4111 55.6586 23.4012 54.2864 23.5603C52.8397 23.7293 51.3582 24.1072 51.3582 25.8422C51.3582 27.3437 52.4867 28.1689 53.9384 28.1689ZM54.2616 26.9758C53.4214 26.9758 52.8149 26.5979 52.8149 25.8621C52.8149 25.0667 53.5208 24.7833 54.3809 24.6689C54.8631 24.6043 56.0066 24.4751 56.2204 24.2613V25.2457C56.2204 26.1505 55.4995 26.9758 54.2616 26.9758Z" fill="white"/>
<path d="M63.2515 20.3635H61.6854V18.534H60.1989V20.3635H59.0803V21.5567H60.1989V26.066C60.1939 27.453 61.2529 28.1242 62.4262 28.0993C62.8985 28.0944 63.2167 28.0049 63.3907 27.9403L63.1222 26.7123C63.0228 26.7322 62.8388 26.7769 62.6002 26.7769C62.1179 26.7769 61.6854 26.6178 61.6854 25.7577V21.5567H63.2515V20.3635Z" fill="white"/>
<path d="M68.7202 27.9999H70.1719V26.8117H70.2962C70.5647 27.2989 71.1116 28.1491 72.5036 28.1491C74.353 28.1491 75.6954 26.6675 75.6954 24.1966C75.6954 21.7208 74.3331 20.2641 72.4887 20.2641C71.0718 20.2641 70.5597 21.1292 70.2962 21.6015H70.2067V17.8181H68.7202V27.9999ZM70.1769 24.1817C70.1769 22.5858 70.8729 21.5269 72.1705 21.5269C73.5178 21.5269 74.1939 22.6654 74.1939 24.1817C74.1939 25.713 73.4979 26.8813 72.1705 26.8813C70.8928 26.8813 70.1769 25.7876 70.1769 24.1817Z" fill="white"/>
<path d="M82.2019 24.833C82.2069 26.1306 81.2424 26.7471 80.4072 26.7471C79.4874 26.7471 78.8511 26.0809 78.8511 25.0418V20.3635H77.3646V25.2208C77.3646 27.115 78.4036 28.0993 79.8703 28.0993C81.0187 28.0993 81.7992 27.4928 82.1522 26.6775H82.2318V27.9999H83.6934V20.3635H82.2019V24.833Z" fill="white"/>
<path d="M85.8101 27.9999H87.2618V26.8117H87.3861C87.6545 27.2989 88.2014 28.1491 89.5934 28.1491C91.4429 28.1491 92.7852 26.6675 92.7852 24.1966C92.7852 21.7208 91.423 20.2641 89.5785 20.2641C88.1616 20.2641 87.6495 21.1292 87.3861 21.6015H87.2966V17.8181H85.8101V27.9999ZM87.2667 24.1817C87.2667 22.5858 87.9628 21.5269 89.2603 21.5269C90.6076 21.5269 91.2838 22.6654 91.2838 24.1817C91.2838 25.713 90.5878 26.8813 89.2603 26.8813C87.9826 26.8813 87.2667 25.7876 87.2667 24.1817Z" fill="white"/>
<path d="M94.5737 27.9999H96.0254V26.8117H96.1497C96.4182 27.2989 96.9651 28.1491 98.3571 28.1491C100.207 28.1491 101.549 26.6675 101.549 24.1966C101.549 21.7208 100.187 20.2641 98.3422 20.2641C96.9253 20.2641 96.4132 21.1292 96.1497 21.6015H96.0602V17.8181H94.5737V27.9999ZM96.0304 24.1817C96.0304 22.5858 96.7264 21.5269 98.024 21.5269C99.3713 21.5269 100.047 22.6654 100.047 24.1817C100.047 25.713 99.3514 26.8813 98.024 26.8813C96.7463 26.8813 96.0304 25.7876 96.0304 24.1817Z" fill="white"/>
<path d="M104.705 17.8181H103.218V27.9999H104.705V17.8181Z" fill="white"/>
<path d="M109.996 28.154C111.661 28.154 112.839 27.3337 113.177 26.0908L111.77 25.8373C111.502 26.5582 110.856 26.926 110.011 26.926C108.738 26.926 107.883 26.1008 107.843 24.6292H113.272V24.1022C113.272 21.343 111.621 20.2641 109.891 20.2641C107.763 20.2641 106.361 21.8849 106.361 24.2314C106.361 26.6029 107.743 28.154 109.996 28.154ZM107.848 23.5155C107.908 22.4317 108.693 21.4921 109.901 21.4921C111.055 21.4921 111.81 22.3472 111.815 23.5155H107.848Z" fill="white"/>
<path d="M122.261 20.3635H120.615V19.6775C120.615 19.0013 120.893 18.6334 121.619 18.6334C121.927 18.6334 122.146 18.703 122.285 18.7478L122.633 17.5447C122.425 17.4651 121.992 17.3408 121.39 17.3408C120.182 17.3408 119.123 18.0468 119.123 19.4786V20.3635H117.945V21.5567H119.123V27.9999H120.615V21.5567H122.261V20.3635Z" fill="white"/>
<path d="M126.71 28.154C128.863 28.154 130.27 26.578 130.27 24.2165C130.27 21.8401 128.863 20.2641 126.71 20.2641C124.557 20.2641 123.15 21.8401 123.15 24.2165C123.15 26.578 124.557 28.154 126.71 28.154ZM126.715 26.9062C125.308 26.9062 124.652 25.6782 124.652 24.2116C124.652 22.7499 125.308 21.507 126.715 21.507C128.112 21.507 128.768 22.7499 128.768 24.2116C128.768 25.6782 128.112 26.9062 126.715 26.9062Z" fill="white"/>
<path d="M131.929 27.9999H133.416V23.3366C133.416 22.3373 134.186 21.6164 135.24 21.6164C135.548 21.6164 135.896 21.6711 136.016 21.7059V20.284C135.867 20.2641 135.573 20.2492 135.384 20.2492C134.489 20.2492 133.724 20.7563 133.445 21.5766H133.366V20.3635H131.929V27.9999Z" fill="white"/>
<path d="M32.9993 49.9999H34.4858V45.2918C34.4858 44.2627 35.2067 43.5468 36.0519 43.5468C36.8772 43.5468 37.4489 44.0937 37.4489 44.9239V49.9999H38.9304V45.1327C38.9304 44.213 39.4922 43.5468 40.4617 43.5468C41.2472 43.5468 41.8935 43.9843 41.8935 45.0184V49.9999H43.38V44.8792C43.38 43.1341 42.4056 42.2641 41.0235 42.2641C39.9248 42.2641 39.0995 42.7911 38.7316 43.6064H38.652C38.3189 42.7712 37.6179 42.2641 36.5988 42.2641C35.5895 42.2641 34.8388 42.7662 34.5206 43.6064H34.4262V42.3635H32.9993V49.9999Z" fill="white"/>
<path d="M48.6636 50.154C50.3291 50.154 51.5073 49.3337 51.8454 48.0908L50.4384 47.8373C50.17 48.5581 49.5237 48.926 48.6785 48.926C47.4058 48.926 46.5506 48.1008 46.5109 46.6292H51.9399V46.1022C51.9399 43.343 50.2893 42.2641 48.5592 42.2641C46.4313 42.2641 45.0293 43.8849 45.0293 46.2314C45.0293 48.6029 46.4114 50.154 48.6636 50.154ZM46.5158 45.5155C46.5755 44.4317 47.361 43.4921 48.5691 43.4921C49.7225 43.4921 50.4782 44.3472 50.4832 45.5155H46.5158Z" fill="white"/>
<path d="M59.3115 44.2279C59.0032 43.0397 58.0736 42.2641 56.423 42.2641C54.6978 42.2641 53.4748 43.1739 53.4748 44.5262C53.4748 45.61 54.1311 46.3309 55.5629 46.6491L56.8555 46.9324C57.5913 47.0965 57.9343 47.4246 57.9343 47.9019C57.9343 48.4935 57.303 48.9559 56.3285 48.9559C55.4386 48.9559 54.8669 48.5731 54.6879 47.8224L53.2511 48.0411C53.4997 49.3934 54.6233 50.154 56.3385 50.154C58.1829 50.154 59.4606 49.1746 59.4606 47.7925C59.4606 46.7137 58.7745 46.0475 57.3726 45.7243L56.1595 45.4459C55.3193 45.2471 54.9564 44.9637 54.9613 44.4466C54.9564 43.86 55.5927 43.4424 56.4379 43.4424C57.3626 43.4424 57.7902 43.9545 57.9642 44.4665L59.3115 44.2279Z" fill="white"/>
<path d="M66.8173 44.2279C66.5091 43.0397 65.5794 42.2641 63.9288 42.2641C62.2037 42.2641 60.9807 43.1739 60.9807 44.5262C60.9807 45.61 61.6369 46.3309 63.0688 46.6491L64.3614 46.9324C65.0972 47.0965 65.4402 47.4246 65.4402 47.9019C65.4402 48.4935 64.8088 48.9559 63.8344 48.9559C62.9445 48.9559 62.3727 48.5731 62.1938 47.8224L60.757 48.0411C61.0055 49.3934 62.1291 50.154 63.8443 50.154C65.6888 50.154 66.9665 49.1746 66.9665 47.7925C66.9665 46.7137 66.2804 46.0475 64.8784 45.7243L63.6653 45.4459C62.8252 45.2471 62.4622 44.9637 62.4672 44.4466C62.4622 43.86 63.0986 43.4424 63.9438 43.4424C64.8685 43.4424 65.296 43.9545 65.47 44.4665L66.8173 44.2279Z" fill="white"/>
<path d="M70.8232 50.1689C72.086 50.1689 72.7969 49.5276 73.0803 48.9559H73.14V49.9999H74.5917V44.9289C74.5917 42.7066 72.8417 42.2641 71.6286 42.2641C70.2465 42.2641 68.9738 42.8209 68.4766 44.213L69.8736 44.5312C70.0924 43.9893 70.6492 43.4672 71.6485 43.4672C72.608 43.4672 73.1002 43.9694 73.1002 44.8344V44.8692C73.1002 45.4111 72.5434 45.4012 71.1712 45.5603C69.7245 45.7293 68.2429 46.1072 68.2429 47.8422C68.2429 49.3437 69.3715 50.1689 70.8232 50.1689ZM71.1464 48.9758C70.3062 48.9758 69.6996 48.5979 69.6996 47.8621C69.6996 47.0667 70.4056 46.7833 71.2657 46.6689C71.7479 46.6043 72.8914 46.4751 73.1052 46.2613V47.2457C73.1052 48.1505 72.3843 48.9758 71.1464 48.9758Z" fill="white"/>
<path d="M79.7733 53.0077C81.7172 53.0077 83.2186 52.1178 83.2186 50.1689V42.3635H81.7619V43.6015H81.6526C81.3891 43.1292 80.8621 42.2641 79.4402 42.2641C77.5957 42.2641 76.2385 43.7208 76.2385 46.1519C76.2385 48.588 77.6256 49.8856 79.4303 49.8856C80.8323 49.8856 81.3742 49.0951 81.6426 48.6079H81.7371V50.1093C81.7371 51.2876 80.9168 51.8096 79.7882 51.8096C78.5503 51.8096 78.068 51.1881 77.8046 50.7655L76.5269 51.2925C76.9296 52.2123 77.9487 53.0077 79.7733 53.0077ZM79.7584 48.6526C78.431 48.6526 77.7399 47.6334 77.7399 46.132C77.7399 44.6654 78.4161 43.5269 79.7584 43.5269C81.056 43.5269 81.752 44.5858 81.752 46.132C81.752 47.708 81.0411 48.6526 79.7584 48.6526Z" fill="white"/>
<path d="M88.5034 50.154C90.1689 50.154 91.3472 49.3337 91.6852 48.0908L90.2783 47.8373C90.0098 48.5581 89.3635 48.926 88.5183 48.926C87.2456 48.926 86.3905 48.1008 86.3507 46.6292H91.7797V46.1022C91.7797 43.343 90.1291 42.2641 88.399 42.2641C86.2712 42.2641 84.8692 43.8849 84.8692 46.2314C84.8692 48.6029 86.2513 50.154 88.5034 50.154ZM86.3557 45.5155C86.4153 44.4317 87.2009 43.4921 88.409 43.4921C89.5624 43.4921 90.318 44.3472 90.323 45.5155H86.3557Z" fill="white"/>
<path d="M97.1341 49.9999H98.6206V42.3635H97.1341V49.9999ZM97.8848 41.1853C98.3969 41.1853 98.8244 40.7876 98.8244 40.3003C98.8244 39.8131 98.3969 39.4104 97.8848 39.4104C97.3678 39.4104 96.9452 39.8131 96.9452 40.3003C96.9452 40.7876 97.3678 41.1853 97.8848 41.1853Z" fill="white"/>
<path d="M102.107 45.4658C102.107 44.2478 102.853 43.5518 103.887 43.5518C104.896 43.5518 105.507 44.213 105.507 45.3216V49.9999H106.994V45.1427C106.994 43.2535 105.955 42.2641 104.394 42.2641C103.245 42.2641 102.495 42.7961 102.142 43.6064H102.047V42.3635H100.62V49.9999H102.107V45.4658Z" fill="white"/>
<path d="M112.552 42.3635H110.986V40.534H109.5V42.3635H108.381V43.5567H109.5V48.066C109.495 49.453 110.554 50.1242 111.727 50.0993C112.199 50.0944 112.517 50.0049 112.691 49.9403L112.423 48.7123C112.324 48.7322 112.14 48.7769 111.901 48.7769C111.419 48.7769 110.986 48.6178 110.986 47.7577V43.5567H112.552V42.3635Z" fill="white"/>
<path d="M117.406 50.154C119.071 50.154 120.25 49.3337 120.588 48.0908L119.181 47.8373C118.912 48.5581 118.266 48.926 117.421 48.926C116.148 48.926 115.293 48.1008 115.253 46.6292H120.682V46.1022C120.682 43.343 119.031 42.2641 117.301 42.2641C115.174 42.2641 113.772 43.8849 113.772 46.2314C113.772 48.6029 115.154 50.154 117.406 50.154ZM115.258 45.5155C115.318 44.4317 116.103 43.4921 117.311 43.4921C118.465 43.4921 119.22 44.3472 119.225 45.5155H115.258Z" fill="white"/>
<path d="M122.331 49.9999H123.818V45.3366C123.818 44.3373 124.588 43.6164 125.642 43.6164C125.951 43.6164 126.299 43.6711 126.418 43.7059V42.284C126.269 42.2641 125.976 42.2492 125.787 42.2492C124.892 42.2492 124.126 42.7563 123.848 43.5766H123.768V42.3635H122.331V49.9999Z" fill="white"/>
<path d="M131.79 42.3635H130.144V41.6775C130.144 41.0013 130.423 40.6334 131.148 40.6334C131.457 40.6334 131.675 40.703 131.815 40.7478L132.163 39.5447C131.954 39.4651 131.521 39.3408 130.92 39.3408C129.712 39.3408 128.653 40.0468 128.653 41.4786V42.3635H127.474V43.5567H128.653V49.9999H130.144V43.5567H131.79V42.3635Z" fill="white"/>
<path d="M135.313 50.1689C136.576 50.1689 137.287 49.5276 137.571 48.9559H137.63V49.9999H139.082V44.9289C139.082 42.7066 137.332 42.2641 136.119 42.2641C134.737 42.2641 133.464 42.8209 132.967 44.213L134.364 44.5312C134.583 43.9893 135.139 43.4672 136.139 43.4672C137.098 43.4672 137.59 43.9694 137.59 44.8344V44.8692C137.59 45.4111 137.034 45.4012 135.661 45.5603C134.215 45.7293 132.733 46.1072 132.733 47.8422C132.733 49.3437 133.862 50.1689 135.313 50.1689ZM135.637 48.9758C134.796 48.9758 134.19 48.5979 134.19 47.8621C134.19 47.0667 134.896 46.7833 135.756 46.6689C136.238 46.6043 137.382 46.4751 137.595 46.2613V47.2457C137.595 48.1505 136.875 48.9758 135.637 48.9758Z" fill="white"/>
<path d="M144.278 50.154C146.083 50.154 147.251 49.0702 147.416 47.5837H145.969C145.78 48.409 145.139 48.8962 144.288 48.8962C143.031 48.8962 142.22 47.8472 142.22 46.1817C142.22 44.5461 143.046 43.517 144.288 43.517C145.233 43.517 145.81 44.1135 145.969 44.8295H147.416C147.256 43.2883 145.999 42.2641 144.264 42.2641C142.111 42.2641 140.719 43.8849 140.719 46.2165C140.719 48.5184 142.061 50.154 144.278 50.154Z" fill="white"/>
<path d="M152.296 50.154C153.962 50.154 155.14 49.3337 155.478 48.0908L154.071 47.8373C153.803 48.5581 153.156 48.926 152.311 48.926C151.039 48.926 150.183 48.1008 150.144 46.6292H155.573V46.1022C155.573 43.343 153.922 42.2641 152.192 42.2641C150.064 42.2641 148.662 43.8849 148.662 46.2314C148.662 48.6029 150.044 50.154 152.296 50.154ZM150.149 45.5155C150.208 44.4317 150.994 43.4921 152.202 43.4921C153.355 43.4921 154.111 44.3472 154.116 45.5155H150.149Z" fill="white"/>
<path d="M162.944 44.2279C162.636 43.0397 161.706 42.2641 160.056 42.2641C158.331 42.2641 157.108 43.1739 157.108 44.5262C157.108 45.61 157.764 46.3309 159.196 46.6491L160.488 46.9324C161.224 47.0965 161.567 47.4246 161.567 47.9019C161.567 48.4935 160.936 48.9559 159.961 48.9559C159.071 48.9559 158.5 48.5731 158.321 47.8224L156.884 48.0411C157.132 49.3934 158.256 50.154 159.971 50.154C161.816 50.154 163.093 49.1746 163.093 47.7925C163.093 46.7137 162.407 46.0475 161.005 45.7243L159.792 45.4459C158.952 45.2471 158.589 44.9637 158.594 44.4466C158.589 43.86 159.226 43.4424 160.071 43.4424C160.995 43.4424 161.423 43.9545 161.597 44.4665L162.944 44.2279Z" fill="white"/>
<path d="M165.707 50.0944C166.249 50.0944 166.702 49.6519 166.702 49.1001C166.702 48.5582 166.249 48.1107 165.707 48.1107C165.16 48.1107 164.713 48.5582 164.713 49.1001C164.713 49.6519 165.16 50.0944 165.707 50.0944Z" fill="white"/>
<g opacity="0.56">
<path d="M35.2315 76.1208C36.9112 76.1208 37.8948 74.7501 37.8948 72.3673C37.8948 70.0022 36.897 68.6279 35.2315 68.6279C33.5624 68.6279 32.5681 69.9987 32.5646 72.3673C32.5646 74.7465 33.5482 76.1173 35.2315 76.1208ZM35.2315 75.1727C34.2478 75.1727 33.6548 74.1855 33.6548 72.3673C33.6583 70.5562 34.2514 69.5583 35.2315 69.5583C36.208 69.5583 36.8046 70.5562 36.8046 72.3673C36.8046 74.1855 36.2116 75.1727 35.2315 75.1727Z" fill="white"/>
<path d="M41.9138 68.7274H40.8449L39.0303 69.9134V70.9646L40.7704 69.8282H40.813V76.0001H41.9138V68.7274Z" fill="white"/>
<path d="M44.5949 71.4546C44.982 71.4546 45.3052 71.1386 45.3052 70.7444C45.3052 70.3573 44.982 70.0377 44.5949 70.0377C44.2043 70.0377 43.8847 70.3573 43.8847 70.7444C43.8847 71.1386 44.2043 71.4546 44.5949 71.4546ZM44.5949 75.0981C44.982 75.0981 45.3052 74.782 45.3052 74.3879C45.3052 74.0008 44.982 73.6812 44.5949 73.6812C44.2043 73.6812 43.8847 74.0008 43.8847 74.3879C43.8847 74.782 44.2043 75.0981 44.5949 75.0981Z" fill="white"/>
<path d="M49.4724 68.7274H48.4035L46.5889 69.9134V70.9646L48.329 69.8282H48.3716V76.0001H49.4724V68.7274Z" fill="white"/>
<path d="M51.4398 76.0001H56.2267V75.059H52.9525V75.0058L54.3979 73.493C55.7295 72.1471 56.1095 71.5044 56.1095 70.6911C56.1095 69.5228 55.1578 68.6279 53.7871 68.6279C52.427 68.6279 51.4326 69.5086 51.4326 70.8367H52.4802C52.4767 70.0555 52.9809 69.5441 53.7657 69.5441C54.5044 69.5441 55.0655 69.9987 55.0655 70.7231C55.0655 71.3659 54.6819 71.8275 53.9007 72.6549L51.4398 75.2046V76.0001Z" fill="white"/>
<path d="M60.3185 76.0001H61.4158V73.4433H62.9073C64.594 73.4433 65.4286 72.4241 65.4286 71.0818C65.4286 69.743 64.6012 68.7274 62.9108 68.7274H60.3185V76.0001ZM61.4158 72.5129V69.6684H62.7936C63.8803 69.6684 64.3242 70.2579 64.3242 71.0818C64.3242 71.9056 63.8803 72.5129 62.8078 72.5129H61.4158Z" fill="white"/>
<path d="M66.715 68.7274V76.0001H67.759V70.7338H67.8265L69.9714 75.9894H70.8378L72.9827 70.7373H73.0502V76.0001H74.0942V68.7274H72.7626L70.4472 74.3808H70.362L68.0466 68.7274H66.715Z" fill="white"/>
<path d="M76.9857 75.0058H75.963L75.9275 75.4035C75.8458 76.3659 75.6186 77.3353 75.5227 77.7757H76.2755C76.446 77.3105 76.8224 76.2451 76.9325 75.3928L76.9857 75.0058Z" fill="white"/>
<path d="M85.0663 70.6379H86.1246C86.0926 69.4731 85.0628 68.6279 83.5855 68.6279C82.126 68.6279 81.0074 69.4624 81.0074 70.716C81.0074 71.7281 81.7318 72.3211 82.9002 72.6372L83.7595 72.8715C84.5372 73.0775 85.1374 73.3332 85.1374 73.9795C85.1374 74.6897 84.4591 75.1585 83.5252 75.1585C82.68 75.1585 81.9769 74.782 81.9129 73.9901H80.8121C80.8831 75.3076 81.9023 76.1208 83.5323 76.1208C85.2404 76.1208 86.224 75.2224 86.224 73.9901C86.224 72.6798 85.0557 72.172 84.1324 71.9447L83.4222 71.76C82.854 71.6144 82.0976 71.3481 82.1012 70.6521C82.1012 70.0342 82.6658 69.5761 83.5607 69.5761C84.3952 69.5761 84.9882 69.9667 85.0663 70.6379Z" fill="white"/>
<path d="M89.0374 76.1208C89.9394 76.1208 90.4472 75.6627 90.6496 75.2544H90.6922V76.0001H91.7292V72.3779C91.7292 70.7906 90.4792 70.4745 89.6127 70.4745C88.6255 70.4745 87.7164 70.8722 87.3613 71.8666L88.3591 72.0938C88.5154 71.7068 88.9131 71.3339 89.6269 71.3339C90.3123 71.3339 90.6638 71.6926 90.6638 72.3105V72.3353C90.6638 72.7224 90.2661 72.7153 89.286 72.8289C88.2526 72.9497 87.1944 73.2195 87.1944 74.4589C87.1944 75.5313 88.0005 76.1208 89.0374 76.1208ZM89.2682 75.2686C88.6681 75.2686 88.2349 74.9987 88.2349 74.4731C88.2349 73.9049 88.7391 73.7025 89.3535 73.6208C89.6979 73.5747 90.5147 73.4823 90.6674 73.3296V74.0328C90.6674 74.6791 90.1525 75.2686 89.2682 75.2686Z" fill="white"/>
<path d="M95.6896 70.5455H94.571V69.2387H93.5092V70.5455H92.7102V71.3978H93.5092V74.6187C93.5056 75.6095 94.262 76.0889 95.1001 76.0711C95.4374 76.0676 95.6647 76.0036 95.789 75.9575L95.5972 75.0803C95.5262 75.0945 95.3948 75.1265 95.2244 75.1265C94.8799 75.1265 94.571 75.0129 94.571 74.3985V71.3978H95.6896V70.5455Z" fill="white"/>
</g>
</g>
<defs>
<filter id="filter0_d" x="0" y="0" width="200" height="124" filterUnits="userSpaceOnUse" color-interpolation-filters="sRGB">
<feFlood flood-opacity="0" result="BackgroundImageFix"/>
<feColorMatrix in="SourceAlpha" type="matrix" values="0 0 0 0 0 0 0 0 0 0 0 0 0 0 0 0 0 0 127 0"/>
<feOffset dy="16"/>
<feGaussianBlur stdDeviation="8"/>
<feColorMatrix type="matrix" values="0 0 0 0 0 0 0 0 0 0 0 0 0 0 0 0 0 0 0.1 0"/>
<feBlend mode="normal" in2="BackgroundImageFix" result="effect1_dropShadow"/>
<feBlend mode="normal" in="SourceGraphic" in2="effect1_dropShadow" result="shape"/>
</filter>
</defs>
</svg>
